<svg width="1548" height="350" viewBox="0 0 1548 350" fill="none" xmlns="http://www.w3.org/2000/svg">
<path fill-rule="evenodd" clip-rule="evenodd" d="M102 35.5C104 55.3335 111.1 101.9 123.5 129.5C118.5 132 106.301 139.8 97.5 151C81 134 67 84.5 63 15C71.166 17.5 90.4004 25.1001 102 35.5Z" fill="#671EE5"/>
<path d="M119.5 0C151.166 8 212.6 47.6001 205 142C219.348 144.295 247.344 154.237 263.047 180.203C266.945 162.418 270 144.947 270 126C270 123.099 269.951 120.209 269.855 117.331C259.9 108.94 235.201 100.465 223 97C222.199 80.6001 217 66.5 214.5 61.5C234.748 66.9399 251.828 73.1221 265.73 79.1406C274.848 83.0879 282.598 86.9649 288.977 90.5156C295.094 93.9209 299.951 97.0259 303.545 99.6064C303.846 104.7 304 109.832 304 115C304 219.367 241.67 309.26 152 349.891L116.318 330.207C46.2207 284.015 0 204.874 0 115C0 109.158 0.195334 103.361 0.580078 97.6162C15.8574 88.8203 37.1484 77.5879 49.5 74.5C49.834 81.8335 51.5 98.5 55.5 106.5L35 115.5C29.7832 158.042 46.4395 255.964 152.688 314.134C160.672 309.844 168.406 305.15 175.859 300.08L172 276.5C180 272 196.199 259.2 197 244C181.5 262.667 140.6 289.2 101 246C107.334 243.5 118.9 235.5 114.5 223.5C111.334 226.833 102.199 232.3 91 227.5C91.334 200 103.801 143.6 151 138C140.834 125 120.301 79.2002 119.5 0ZM152 167C136.536 167 124 179.536 124 195C124 210.464 136.536 223 152 223C167.464 223 180 210.464 180 195C180 179.536 167.464 167 152 167Z" fill="#671EE5"/>
<path d="M535.893 115.46L531.001 142.826L493.02 276.489H459.93L409 74.8424H442.665L444.967 91.5502L472.878 215.13L475.755 243.649H478.633L482.085 215.13L521.793 77.7231H552.869L592.577 215.13L596.03 243.649H598.907L601.785 215.13L629.695 91.5502L631.997 74.8424H665.662L615.02 276.489H581.643L543.661 142.826L538.77 115.46H535.893Z" fill="#211732"/>
<path d="M712.006 106.818C706.827 106.818 702.415 105.185 698.77 101.921C695.317 98.6559 693.591 94.1428 693.591 88.3815C693.591 82.6202 695.317 78.1072 698.77 74.8424C702.415 71.5777 706.827 69.9453 712.006 69.9453C716.994 69.9453 721.214 71.5777 724.667 74.8424C728.311 78.1072 730.134 82.6202 730.134 88.3815C730.134 94.1428 728.311 98.6559 724.667 101.921C721.214 105.185 716.994 106.818 712.006 106.818ZM698.482 276.489L701.36 253.443V153.196H670.572V129.575H733.011L730.134 152.62V253.443L733.011 276.489H698.482Z" fill="#211732"/>
<path d="M861.88 133.032V157.517L856.988 160.398C851.809 157.325 845.958 154.925 839.436 153.196C833.106 151.468 825.912 150.604 817.856 150.604C812.868 150.604 808.072 151.084 803.469 152.044C798.865 152.812 795.028 154.445 791.959 156.941C789.082 159.246 787.643 162.606 787.643 167.023C787.643 172.017 789.657 176.05 793.686 179.122C797.714 182.003 802.797 184.403 808.936 186.324C815.266 188.244 821.884 190.261 828.79 192.373C835.887 194.486 842.505 197.27 848.644 200.727C854.974 203.992 860.057 208.505 863.894 214.266C867.922 220.028 869.936 227.517 869.936 236.735C869.936 247.874 867.059 256.612 861.304 262.949C855.741 269.095 848.26 273.512 838.86 276.2C829.653 278.697 819.582 279.945 808.648 279.945C798.098 279.945 788.602 279.081 780.162 277.353C771.913 275.624 764.912 273.8 759.157 271.879V247.106L764.049 244.225C769.42 247.49 775.654 250.178 782.752 252.291C789.849 254.403 798.769 255.46 809.511 255.46C815.266 255.46 820.541 255.076 825.337 254.307C830.324 253.347 834.353 251.619 837.422 249.122C840.491 246.434 842.026 242.689 842.026 237.888C842.026 232.318 840.011 227.997 835.983 224.925C832.147 221.66 827.063 219.067 820.733 217.147C814.595 215.227 807.977 213.306 800.879 211.386C793.973 209.465 787.355 206.969 781.025 203.896C774.695 200.631 769.516 196.214 765.487 190.645C761.651 184.884 759.733 177.298 759.733 167.888C759.733 159.438 761.267 152.524 764.336 147.147C767.597 141.77 772.009 137.545 777.572 134.472C783.327 131.399 789.753 129.287 796.851 128.135C804.14 126.79 811.621 126.118 819.294 126.118C827.926 126.118 835.791 126.790 842.889 128.135C849.986 129.287 856.317 130.919 861.88 133.032Z" fill="#211732"/>
<path d="M887.843 203.032C887.843 184.019 890.913 168.944 897.051 157.805C903.381 146.475 911.726 138.409 922.084 133.608C932.443 128.615 943.665 126.118 955.75 126.118C969.561 126.118 981.07 128.807 990.278 134.184C999.486 139.561 1006.39 147.147 1011 156.941C1015.6 166.735 1017.9 178.354 1017.9 191.797C1017.9 195.83 1017.71 199.575 1017.33 203.032C1016.94 206.296 1016.46 209.753 1015.89 213.402H905.108V207.065L931.004 191.509H989.415C989.415 183.059 988.456 175.761 986.538 169.616C984.811 163.471 981.454 158.766 976.467 155.501C971.671 152.044 964.574 150.316 955.174 150.316C945.775 150.316 938.293 152.236 932.731 156.077C927.168 159.918 923.139 165.583 920.646 173.073C918.344 180.563 917.193 189.781 917.193 200.727C917.193 212.634 918.44 222.332 920.933 229.822C923.427 237.12 926.784 242.593 931.004 246.242C935.416 249.89 940.404 252.387 945.966 253.731C951.721 254.884 957.86 255.46 964.382 255.46C972.63 255.46 980.015 254.692 986.538 253.155C993.251 251.619 999.486 249.314 1005.24 246.242L1010.42 249.122V272.744C1004.67 274.856 998.239 276.585 991.141 277.929C984.044 279.273 975.891 279.945 966.684 279.945C956.709 279.945 947.022 278.793 937.622 276.489C928.223 274.376 919.782 270.631 912.301 265.254C904.82 259.685 898.873 251.907 894.461 241.921C890.049 231.742 887.843 218.779 887.843 203.032Z" fill="#211732"/>
<path d="M1087.73 276.489L1016.37 74.8424H1051.18L1054.92 91.5502L1097.22 221.468L1101.83 247.106H1104.99L1109.59 221.468L1151.89 91.5502L1155.63 74.8424H1190.45L1119.09 276.489H1087.73Z" fill="#211732"/>
<path d="M1212.35 276.489L1215.23 253.443V97.8877L1212.35 74.8424H1280.26C1294.83 74.8424 1307.01 77.7231 1316.8 83.4844C1326.77 89.0537 1334.35 96.5434 1339.53 105.954C1344.71 115.364 1347.3 125.83 1347.3 137.353C1347.3 144.842 1346.05 152.332 1343.56 159.822C1341.26 167.12 1337.42 173.841 1332.05 179.986C1326.87 185.94 1319.96 190.645 1311.33 194.102C1302.89 197.558 1292.53 199.287 1280.26 199.287H1244.58V253.443L1247.45 276.489H1212.35ZM1244.58 173.937H1276.8C1290.81 173.937 1300.88 170.672 1307.01 164.143C1313.35 157.421 1316.51 148.587 1316.51 137.641C1316.51 126.31 1313.25 117.284 1306.73 110.563C1300.4 103.649 1290.42 100.192 1276.8 100.192H1244.58V173.937Z" fill="#211732"/>
<path d="M1374.49 276.489L1377.37 253.443V74.8424H1411.04L1503.11 213.114L1513.18 241.633H1515.77V97.8877L1512.9 74.8424H1548L1545.12 97.8877V276.489H1511.46L1419.38 138.217L1409.31 109.986H1406.72V253.443L1409.6 276.489H1374.49Z" fill="#211732"/>
</svg>
